<svg xmlns:xlink="http://www.w3.org/1999/xlink" width="15" height="13" viewBox="0 0 15 13" fill="none" xmlns="http://www.w3.org/2000/svg">
                        <path d="M10.5454 11.3287C10.3922 11.3287 10.2452 11.2672 10.1369 11.1576C10.0285 11.048 9.96763 10.8994 9.96763 10.7444H8.81201C8.81201 11.2093 8.99464 11.6552 9.31972 11.984C9.6448 12.3128 10.0857 12.4975 10.5454 12.4975C11.0052 12.4975 11.4461 12.3128 11.7711 11.984C12.0962 11.6552 12.2789 11.2093 12.2789 10.7444H11.1232C11.1232 10.8994 11.0624 11.048 10.954 11.1576C10.8456 11.2672 10.6987 11.3287 10.5454 11.3287Z"></path>
                        <path d="M6.47907 11.3287C6.32583 11.3287 6.17886 11.2672 6.0705 11.1576C5.96214 11.048 5.90127 10.8994 5.90127 10.7444H4.74023C4.74023 10.9749 4.78514 11.2032 4.87238 11.4162C4.95962 11.6292 5.08748 11.8228 5.24868 11.9858C5.40988 12.1488 5.60125 12.2782 5.81186 12.3664C6.02248 12.4546 6.24822 12.5 6.47618 12.5C6.70415 12.5 6.92989 12.4546 7.1405 12.3664C7.35112 12.2782 7.54249 12.1488 7.70368 11.9858C7.86488 11.8228 7.99275 11.6292 8.07999 11.4162C8.16723 11.2032 8.21213 10.9749 8.21213 10.7444H7.05652C7.05652 10.8993 6.99569 11.0479 6.88741 11.1575C6.77913 11.267 6.63225 11.3286 6.47907 11.3287Z"></path>
                        <path d="M14.0173 1.66048C13.9858 1.65506 13.9539 1.65237 13.9219 1.65244H4.67702C4.52377 1.65244 4.37681 1.71401 4.26845 1.8236C4.16009 1.93319 4.09921 2.08182 4.09921 2.23681C4.09921 2.39179 4.16009 2.54042 4.26845 2.65001C4.37681 2.7596 4.52377 2.82117 4.67702 2.82117H13.2398L13.087 3.74811L12.277 8.66477H4.73949L2.77495 3.74811L1.60308 0.840914C1.54111 0.70415 1.42937 0.596826 1.29113 0.541284C1.15289 0.485742 0.998786 0.486261 0.860911 0.542733C0.723035 0.599206 0.612007 0.70728 0.550938 0.844458C0.489868 0.981637 0.483464 1.13735 0.533058 1.27918L2.40407 5.9223L3.68102 9.34519C3.77528 9.63335 3.96993 9.83349 4.25088 9.83349H12.7663C12.9031 9.83356 13.0355 9.78452 13.14 9.6951C13.2444 9.60568 13.314 9.48168 13.3365 9.34519L14.2589 3.74811L14.4921 2.33286C14.5173 2.18001 14.4814 2.02331 14.3924 1.89722C14.3033 1.77113 14.1684 1.68598 14.0173 1.66048Z"></path>
                      </svg>