<svg xmlns:xlink="http://www.w3.org/1999/xlink" width="18" height="18" viewBox="0 0 18 18" fill="none" xmlns="http://www.w3.org/2000/svg">
                        <path fill-rule="evenodd" clip-rule="evenodd" d="M10.2406 0.780116C10.7017 0.346314 11.3492 0.218262 12.0519 0.218262H15.3573C16.06 0.218262 16.7074 0.346314 17.1686 0.780116C17.6389 1.22258 17.7819 1.85492 17.7819 2.53644V8.10008C17.7819 8.7816 17.6389 9.41395 17.1686 9.85641C16.7074 10.2902 16.06 10.4183 15.3573 10.4183H12.0519C11.3492 10.4183 10.7017 10.2902 10.2406 9.85641C9.77031 9.41395 9.62732 8.7816 9.62732 8.10008V2.53644C9.62732 1.85492 9.77031 1.22258 10.2406 0.780116ZM11.0629 1.65413C10.9461 1.76395 10.8273 1.99069 10.8273 2.53644V8.10008C10.8273 8.64583 10.9461 8.87258 11.0629 8.98239C11.1888 9.10086 11.4537 9.21826 12.0519 9.21826H15.3573C15.9555 9.21826 16.2204 9.10086 16.3463 8.98239C16.463 8.87258 16.5819 8.64583 16.5819 8.10008V2.53644C16.5819 1.99069 16.463 1.76395 16.3463 1.65413C16.2204 1.53566 15.9555 1.41826 15.3573 1.41826H12.0519C11.4537 1.41826 11.1888 1.53566 11.0629 1.65413Z" fill="#212529"></path>
                        <path fill-rule="evenodd" clip-rule="evenodd" d="M10.2406 12.2345C10.7017 11.8007 11.3492 11.6726 12.0519 11.6726H15.3573C16.06 11.6726 16.7074 11.8007 17.1686 12.2345C17.6389 12.6769 17.7819 13.3093 17.7819 13.9908V15.4635C17.7819 16.145 17.6389 16.7774 17.1686 17.2198C16.7074 17.6536 16.06 17.7817 15.3573 17.7817H12.0519C11.3492 17.7817 10.7017 17.6536 10.2406 17.2198C9.77031 16.7774 9.62732 16.145 9.62732 15.4635V13.9908C9.62732 13.3093 9.77031 12.6769 10.2406 12.2345ZM11.0629 13.1085C10.9461 13.2183 10.8273 13.445 10.8273 13.9908V15.4635C10.8273 16.0093 10.9461 16.236 11.0629 16.3458C11.1888 16.4643 11.4537 16.5817 12.0519 16.5817H15.3573C15.9555 16.5817 16.2204 16.4643 16.3463 16.3458C16.463 16.236 16.5819 16.0093 16.5819 15.4635V13.9908C16.5819 13.445 16.463 13.2183 16.3463 13.1085C16.2204 12.99 15.9555 12.8726 15.3573 12.8726H12.0519C11.4537 12.8726 11.1888 12.99 11.0629 13.1085Z" fill="#212529"></path>
                        <path fill-rule="evenodd" clip-rule="evenodd" d="M1.6537 9.01766C1.53697 9.12747 1.41814 9.35422 1.41814 9.89997V15.4636C1.41814 16.0094 1.53697 16.2361 1.6537 16.3459C1.77962 16.4644 2.04448 16.5818 2.64269 16.5818H5.94814C6.54634 16.5818 6.8112 16.4644 6.93713 16.3459C7.05385 16.2361 7.17269 16.0094 7.17269 15.4636V9.89997C7.17269 9.35422 7.05385 9.12747 6.93713 9.01766C6.8112 8.89919 6.54634 8.78179 5.94814 8.78179H2.64269C2.04448 8.78179 1.77962 8.89919 1.6537 9.01766ZM0.831448 8.14364C1.29256 7.70984 1.93998 7.58179 2.64269 7.58179H5.94814C6.65085 7.58179 7.29826 7.70984 7.75938 8.14364C8.2297 8.5861 8.37269 9.21845 8.37269 9.89997V15.4636C8.37269 16.1451 8.2297 16.7775 7.75938 17.2199C7.29826 17.6537 6.65085 17.7818 5.94814 17.7818H2.64269C1.93998 17.7818 1.29256 17.6537 0.831448 17.2199C0.361128 16.7775 0.21814 16.1451 0.21814 15.4636V9.89997C0.21814 9.21844 0.361128 8.5861 0.831448 8.14364Z" fill="#212529"></path>
                        <path fill-rule="evenodd" clip-rule="evenodd" d="M1.6537 1.65413C1.53697 1.76395 1.41814 1.99069 1.41814 2.53644V4.00917C1.41814 4.55492 1.53697 4.78167 1.6537 4.89148C1.77962 5.00995 2.04448 5.12735 2.64269 5.12735H5.94814C6.54634 5.12735 6.8112 5.00995 6.93713 4.89148C7.05385 4.78167 7.17269 4.55492 7.17269 4.00917V2.53644C7.17269 1.99069 7.05385 1.76395 6.93713 1.65413C6.8112 1.53566 6.54634 1.41826 5.94814 1.41826H2.64269C2.04448 1.41826 1.77962 1.53566 1.6537 1.65413ZM0.831448 0.780116C1.29256 0.346314 1.93998 0.218262 2.64269 0.218262H5.94814C6.65085 0.218262 7.29826 0.346314 7.75938 0.780116C8.2297 1.22258 8.37269 1.85492 8.37269 2.53644V4.00917C8.37269 4.69069 8.2297 5.32304 7.75938 5.7655C7.29826 6.1993 6.65085 6.32735 5.94814 6.32735H2.64269C1.93998 6.32735 1.29256 6.1993 0.831448 5.7655C0.361128 5.32304 0.21814 4.69069 0.21814 4.00917V2.53644C0.21814 1.85492 0.361128 1.22258 0.831448 0.780116Z" fill="#212529"></path>
                      </svg>