<svg xmlns:xlink="http://www.w3.org/1999/xlink" width="18" height="18" viewBox="0 0 18 18" fill="none" xmlns="http://www.w3.org/2000/svg">
                        <rect width="18" height="18" fill="none"></rect>
                        <path fill-rule="evenodd" clip-rule="evenodd" d="M1.54404 1.54059C2.65827 0.42709 4.3263 0 6.48283 0H11.5172C13.6737 0 15.3417 0.42709 16.456 1.54059C17.5716 2.65555 18 4.32629 18 6.48447V11.5155C18 13.6737 17.5716 15.3445 16.456 16.4594C15.3417 17.5729 13.6737 18 11.5172 18H6.48283C4.3263 18 2.65827 17.5729 1.54404 16.4594C0.428359 15.3445 0 13.6737 0 11.5155V6.48447C0 4.32629 0.428359 2.65555 1.54404 1.54059ZM2.40174 2.41437C1.62954 3.18607 1.21884 4.45011 1.21884 6.48447V11.5155C1.21884 13.5499 1.62954 14.8139 2.40174 15.5856C3.17539 16.3588 4.44406 16.7702 6.48283 16.7702H11.5172C13.5559 16.7702 14.8246 16.3588 15.5983 15.5856C16.3705 14.8139 16.7812 13.5499 16.7812 11.5155V6.48447C16.7812 4.45011 16.3705 3.18607 15.5983 2.41437C14.8246 1.64123 13.5559 1.22981 11.5172 1.22981H6.48283C4.44406 1.22981 3.17539 1.64123 2.40174 2.41437Z" fill="#212529"></path>
                        <path fill-rule="evenodd" clip-rule="evenodd" d="M8.93317 4.37377C9.63723 3.61699 10.953 4.08433 10.953 5.1047V7.84039H11.8419C12.8317 7.84039 13.3686 8.95684 12.7098 9.67166C12.7097 9.67173 12.7099 9.6716 12.7098 9.67166L9.06683 13.6262C8.36277 14.383 7.047 13.9157 7.047 12.8953V10.1596H6.15811C5.16826 10.1596 4.63139 9.04315 5.2902 8.32833C5.29026 8.32827 5.29014 8.3284 5.2902 8.32833L8.93317 4.37377ZM9.75641 5.21051L6.25047 9.01633H7.6453C7.97572 9.01633 8.24359 9.27226 8.24359 9.58797V12.7895L11.7495 8.98367H10.3547C10.0243 8.98367 9.75641 8.72773 9.75641 8.41203V5.21051Z" fill="#212529"></path>
                      </svg>