<svg xmlns:xlink="http://www.w3.org/1999/xlink" width="18" height="18" viewBox="0 0 18 18" fill="none" xmlns="http://www.w3.org/2000/svg">
                        <path fill-rule="evenodd" clip-rule="evenodd" d="M6.26846 10.156C6.59983 10.156 6.86846 10.4246 6.86846 10.756C6.86846 11.9231 7.83292 12.8875 9 12.8875C10.1671 12.8875 11.1315 11.9231 11.1315 10.756C11.1315 10.4246 11.4002 10.156 11.7315 10.156C12.0629 10.156 12.3315 10.4246 12.3315 10.756C12.3315 12.5858 10.8298 14.0875 9 14.0875C7.17018 14.0875 5.66846 12.5858 5.66846 10.756C5.66846 10.4246 5.93709 10.156 6.26846 10.156Z" fill="#111111"></path>
                        <path fill-rule="evenodd" clip-rule="evenodd" d="M6.93408 0.770732C7.16872 1.00472 7.16924 1.38462 6.93525 1.61926L4.11005 4.45226C3.87606 4.6869 3.49616 4.68742 3.26153 4.45343C3.02689 4.21944 3.02637 3.83954 3.26036 3.6049L6.08555 0.771903C6.31954 0.537265 6.69944 0.536741 6.93408 0.770732Z" fill="#111111"></path>
                        <path fill-rule="evenodd" clip-rule="evenodd" d="M11.066 0.770732C11.3006 0.536741 11.6805 0.537265 11.9145 0.771903L14.7397 3.6049C14.9737 3.83954 14.9732 4.21944 14.7385 4.45343C14.5039 4.68742 14.124 4.6869 13.89 4.45226L11.0648 1.61926C10.8308 1.38462 10.8313 1.00472 11.066 0.770732Z" fill="#111111"></path>
                        <path fill-rule="evenodd" clip-rule="evenodd" d="M2.03579 4.93786C1.9586 4.98956 1.79558 5.1378 1.79558 5.76122C1.79558 6.53405 1.97485 6.63591 2.00045 6.65046C2.00083 6.65067 2.00118 6.65087 2.00149 6.65105C2.04429 6.67571 2.1264 6.7033 2.29644 6.71579C2.42615 6.72532 2.55965 6.72432 2.72619 6.72307C2.7884 6.72261 2.85521 6.72211 2.92816 6.72211H15.0718C15.1448 6.72211 15.2116 6.72261 15.2738 6.72307C15.4403 6.72432 15.5738 6.72532 15.7035 6.71579C15.8736 6.7033 15.9557 6.67571 15.9985 6.65105L15.9995 6.65046C16.0251 6.63591 16.2044 6.53405 16.2044 5.76122C16.2044 5.1378 16.0414 4.98956 15.9642 4.93786C15.8225 4.84293 15.5702 4.80034 15.0718 4.80034H2.92816C2.42976 4.80034 2.17753 4.84293 2.03579 4.93786ZM1.368 3.94084C1.85256 3.61629 2.46661 3.60034 2.92816 3.60034H15.0718C15.5334 3.60034 16.1474 3.61629 16.632 3.94084C17.1811 4.30863 17.4044 4.94083 17.4044 5.76122C17.4044 6.65485 17.2027 7.34205 16.5977 7.69074C16.3273 7.84655 16.0363 7.89458 15.7915 7.91257C15.6088 7.92599 15.4055 7.92438 15.2249 7.92294C15.1715 7.92251 15.1201 7.92211 15.0718 7.92211H2.92816C2.87987 7.92211 2.82847 7.92251 2.7751 7.92294C2.59449 7.92438 2.3912 7.92599 2.2085 7.91257C1.96368 7.89458 1.67265 7.84655 1.40229 7.69074C0.797263 7.34205 0.595581 6.65485 0.595581 5.76122C0.595581 4.94083 0.818881 4.30863 1.368 3.94084Z" fill="#111111"></path>
                        <path fill-rule="evenodd" clip-rule="evenodd" d="M15.7467 6.84984C16.0721 6.91225 16.2854 7.22667 16.223 7.55211L14.9118 14.3886C14.9118 14.3887 14.9119 14.3885 14.9118 14.3886C14.7739 15.1091 14.593 15.9124 14.0279 16.5045C13.437 17.1236 12.5442 17.4044 11.2554 17.4044H6.54937C5.33588 17.4044 4.44854 17.1012 3.83769 16.4826C3.24376 15.8811 3.00535 15.0723 2.87463 14.2798L1.77404 7.53574C1.72067 7.20869 1.94252 6.90031 2.26957 6.84693C2.59661 6.79356 2.905 7.01542 2.95837 7.34246L4.05863 14.0845C4.0586 14.0843 4.05865 14.0846 4.05863 14.0845C4.17764 14.8057 4.36465 15.3084 4.69156 15.6394C5.00163 15.9535 5.5308 16.2044 6.54937 16.2044H11.2554C12.3938 16.2044 12.8941 15.9545 13.1598 15.676C13.4511 15.3707 13.5903 14.9096 13.7333 14.1629L15.0444 7.32609C15.1068 7.00065 15.4213 6.78743 15.7467 6.84984Z" fill="#111111"></path>
                      </svg>