<svg xmlns:xlink="http://www.w3.org/1999/xlink" width="18" height="18" viewBox="0 0 18 18" fill="none" xmlns="http://www.w3.org/2000/svg">
                        <path fill-rule="evenodd" clip-rule="evenodd" d="M1.72023 7.79663C2.03319 7.79663 2.2869 8.05183 2.2869 8.36663V12.0126C2.2869 13.7784 2.64417 14.8673 3.30633 15.5295C3.96931 16.1925 5.06039 16.5503 6.8279 16.5503H11.2047C12.9723 16.5503 14.0633 16.1925 14.7263 15.5295C15.3885 14.8673 15.7457 13.7784 15.7457 12.0126V8.36663C15.7457 8.05183 15.9994 7.79663 16.3124 7.79663C16.6254 7.79663 16.8791 8.05183 16.8791 8.36663V12.0126C16.8791 13.8929 16.5055 15.3578 15.5253 16.338C14.546 17.3173 13.0832 17.6903 11.2047 17.6903H6.8279C4.9494 17.6903 3.48665 17.3173 2.50729 16.338C1.52712 15.3578 1.15356 13.8929 1.15356 12.0126V8.36663C1.15356 8.05183 1.40727 7.79663 1.72023 7.79663Z" fill="#111111"></path>
                        <path fill-rule="evenodd" clip-rule="evenodd" d="M6.56445 0.822476C6.59366 0.531308 6.83732 0.309692 7.12826 0.309692H10.9204C11.2117 0.309692 11.4555 0.531786 11.4843 0.823321L12.0203 6.24768C12.1996 8.07135 10.839 9.56999 9.02029 9.56999C7.20157 9.56999 5.84091 8.0716 6.02028 6.24793L6.56445 0.822476ZM7.64063 1.44969L7.14811 6.36017C7.14809 6.36035 7.14813 6.36 7.14811 6.36017C7.03547 7.50828 7.86716 8.42999 9.02029 8.42999C10.1736 8.42999 11.0054 7.50853 10.8925 6.36017L10.4073 1.44969H7.64063Z" fill="#111111"></path>
                        <path fill-rule="evenodd" clip-rule="evenodd" d="M10.4677 0.497312C10.5751 0.377852 10.7278 0.309692 10.888 0.309692H13.3646C14.4858 0.309692 15.3931 0.52107 16.0521 1.12978C16.7043 1.73223 17.0057 2.6263 17.1578 3.72437C17.1587 3.73121 17.1595 3.73806 17.1602 3.74493L17.3877 5.97932C17.5838 7.94953 16.1173 9.56999 14.1442 9.56999C12.5168 9.56999 11.061 8.26389 10.8927 6.63078L10.8925 6.62899L10.3241 0.936659C10.3081 0.77638 10.3603 0.616773 10.4677 0.497312ZM11.5144 1.44969L12.02 6.51326C12.02 6.51298 12.0201 6.51355 12.02 6.51326C12.1283 7.55948 13.0922 8.42999 14.1442 8.42999C15.4515 8.42999 16.3885 7.38735 16.2601 6.09352C16.2601 6.0933 16.2601 6.09375 16.2601 6.09352L16.0339 3.87154C15.8933 2.86465 15.6431 2.29974 15.2855 1.96945C14.9335 1.64433 14.371 1.44969 13.3646 1.44969H11.5144Z" fill="#111111"></path>
                        <path fill-rule="evenodd" clip-rule="evenodd" d="M1.93987 1.12978C2.59887 0.52107 3.50613 0.309692 4.62729 0.309692H7.10398C7.26414 0.309692 7.41681 0.377863 7.52425 0.497342C7.63168 0.616821 7.68383 0.776449 7.6678 0.93674L7.09955 6.62736C7.09952 6.6276 7.09957 6.62711 7.09955 6.62736C6.94048 8.26363 5.48231 9.56999 3.85586 9.56999C1.88289 9.56999 0.41646 7.94975 0.61227 5.9797C0.612257 5.97983 0.612283 5.97958 0.61227 5.9797L0.831483 3.74698C0.832225 3.73943 0.833116 3.73189 0.834157 3.72437C0.986197 2.6263 1.28765 1.73223 1.93987 1.12978ZM1.9582 3.87052L1.74008 6.0921C1.61131 7.38625 2.54836 8.42999 3.85586 8.42999C4.90886 8.42999 5.87042 7.55977 5.97157 6.51669L5.97171 6.51523L6.47745 1.44969H4.62729C3.62092 1.44969 3.05841 1.64433 2.70643 1.96945C2.34898 2.29963 2.09878 2.86427 1.9582 3.87052Z" fill="#111111"></path>
                        <path fill-rule="evenodd" clip-rule="evenodd" d="M7.09724 13.1624C7.57954 12.6801 8.25662 12.4901 9.02033 12.4901C9.78403 12.4901 10.4611 12.6801 10.9434 13.1624C11.4263 13.6453 11.6171 14.3243 11.6171 15.0902V17.1203C11.6171 17.4351 11.3634 17.6903 11.0504 17.6903H6.99025C6.67729 17.6903 6.42358 17.4351 6.42358 17.1203V15.0902C6.42358 14.3243 6.61432 13.6453 7.09724 13.1624ZM7.89627 13.9708C7.70317 14.1639 7.55692 14.5 7.55692 15.0902V16.5503H10.4837V15.0902C10.4837 14.5 10.3375 14.1639 10.1444 13.9708C9.95067 13.7771 9.61271 13.6301 9.02033 13.6301C8.42794 13.6301 8.08999 13.7771 7.89627 13.9708Z" fill="#111111"></path>
                      </svg>